<svg width="181" height="180" viewBox="0 0 181 180" fill="none" xmlns="http://www.w3.org/2000/svg">
    <path d="M90.51 179.02C119.51 179.02 143.02 155.51 143.02 126.51C143.02 97.5095 119.51 74 90.51 74C61.5095 74 38 97.5095 38 126.51C38 155.51 61.5095 179.02 90.51 179.02Z" fill="#2B4C68"/>
    <path d="M104.49 109.78C106.335 109.78 107.83 108.285 107.83 106.44C107.83 104.595 106.335 103.1 104.49 103.1C102.645 103.1 101.15 104.595 101.15 106.44C101.15 108.285 102.645 109.78 104.49 109.78Z" fill="white"/>
    <path d="M56.8498 104.74C58.6944 104.74 60.1898 103.245 60.1898 101.4C60.1898 99.5554 58.6944 98.06 56.8498 98.06C55.0051 98.06 53.5098 99.5554 53.5098 101.4C53.5098 103.245 55.0051 104.74 56.8498 104.74Z" fill="white"/>
    <path d="M78.3398 125.92C84.9398 126.62 90.9898 120.92 92.1598 113.07C92.2298 112.63 91.8998 112.23 91.4598 112.19L68.3698 109.75C67.9298 109.7 67.5298 110.03 67.4998 110.47C67.0198 118.39 71.7498 125.22 78.3398 125.92Z" fill="white"/>
    <path d="M168.87 33.84L155.51 50.25C154.4 51.61 155.18 53.66 156.91 53.94L177.8 57.3C179.53 57.58 180.91 55.88 180.29 54.24L172.77 34.47C172.14 32.83 169.98 32.48 168.87 33.84Z" fill="white"/>
    <path d="M13.4999 58.16L1.71985 53.19C0.28985 52.59 -0.38015 50.93 0.21985 49.5L5.18985 37.72C5.78985 36.29 7.44985 35.62 8.87985 36.22L20.6598 41.19C22.0898 41.79 22.7598 43.45 22.1598 44.88L17.1898 56.66C16.5898 58.09 14.9398 58.76 13.4999 58.16Z" fill="white"/>
    <path d="M103.07 5.63L94.3599 7.58L87.8099 1.51C86.6499 0.429995 84.7599 1.16 84.6099 2.73L83.7699 11.62L75.9699 15.97C74.5899 16.74 74.6899 18.76 76.1399 19.39L84.3399 22.93L86.0699 31.69C86.3799 33.24 88.3299 33.77 89.3699 32.58L95.2699 25.88L104.14 26.94C105.71 27.13 106.81 25.43 106.01 24.07L101.46 16.39L105.21 8.29C105.88 6.86 104.61 5.28 103.07 5.63Z" fill="white"/>
</svg>
